<?xml version="1.0" standalone="no"?>
<!DOCTYPE svg PUBLIC "-//W3C//DTD SVG 20010904//EN"
 "http://www.w3.org/TR/2001/REC-SVG-20010904/DTD/svg10.dtd">
<svg version="1.0" xmlns="http://www.w3.org/2000/svg"
 width="500.000000pt" height="500.000000pt" viewBox="0 0 500.000000 500.000000"
 preserveAspectRatio="xMidYMid meet">

<g transform="translate(0.000000,500.000000) scale(0.100000,-0.100000)"
fill="#000000" stroke="none">
<path d="M2280 4984 c-14 -2 -65 -9 -115 -15 -49 -6 -95 -16 -102 -21 -7 -5
-17 -7 -22 -4 -11 7 -195 -35 -199 -45 -2 -5 -9 -6 -16 -3 -7 3 -68 -15 -137
-39 -175 -63 -282 -112 -429 -196 -123 -70 -211 -131 -204 -142 3 -5 -1 -7 -8
-4 -18 7 -189 -134 -309 -254 -120 -120 -261 -291 -254 -309 3 -7 1 -11 -4 -8
-19 12 -181 -254 -252 -416 -56 -127 -131 -339 -125 -354 3 -7 2 -14 -3 -16
-9 -4 -53 -187 -46 -198 3 -4 -2 -27 -10 -51 -9 -24 -15 -64 -13 -89 1 -25 -4
-63 -10 -85 -11 -38 -18 -394 -7 -384 2 3 5 83 6 178 1 96 5 168 9 160 5 -7 9
-94 10 -193 0 -100 3 -198 7 -218 3 -22 1 -38 -4 -38 -25 0 -2 -182 46 -370
46 -176 170 -496 204 -525 7 -6 13 -17 15 -25 4 -18 102 -184 135 -227 13 -18
26 -31 29 -28 2 3 5 -1 5 -9 0 -21 134 -186 146 -179 6 3 7 1 3 -5 -17 -28
397 -404 425 -386 7 4 9 3 5 -4 -10 -17 263 -190 277 -175 4 3 7 1 7 -5 0 -15
128 -75 142 -66 6 4 8 3 5 -3 -16 -26 513 -197 558 -179 7 2 16 1 21 -4 30
-29 439 -48 656 -31 273 22 540 92 808 210 163 73 426 233 414 252 -3 5 1 7 8
4 17 -7 189 134 309 254 121 122 261 291 254 309 -2 7 -1 11 4 8 19 -12 180
253 254 420 111 250 199 584 201 760 1 40 4 70 9 67 4 -2 7 0 7 6 0 5 -4 12
-9 15 -4 3 -6 16 -4 30 3 13 0 27 -6 30 -16 11 -15 201 2 218 19 19 12 162
-14 308 -22 123 -72 320 -81 320 -5 0 -7 4 -4 9 6 8 -7 50 -35 116 -6 17 -13
36 -15 43 -7 38 -49 120 -57 115 -6 -3 -7 -1 -3 5 17 28 -201 405 -291 500
-17 18 -32 36 -33 40 -2 15 -148 178 -219 244 -120 112 -259 221 -272 212 -7
-4 -9 -3 -6 3 11 18 -294 210 -313 198 -5 -3 -10 0 -12 5 -3 11 -185 97 -217
104 -9 1 -29 9 -46 16 -103 43 -376 115 -400 106 -7 -2 -17 0 -21 4 -19 19
-261 40 -444 39 -102 -1 -196 -3 -210 -5z m236 -208 l-6 -95 42 -3 c40 -3 43
-5 46 -35 l3 -33 -70 0 -71 0 0 130 0 130 31 0 32 0 -7 -94z m-123 -29 c20
-62 37 -118 37 -125 0 -21 -51 -14 -57 8 -8 30 -60 28 -65 -2 -2 -17 -11 -24
-30 -26 -34 -4 -34 -3 -8 142 11 60 20 111 20 113 0 2 15 3 33 3 l33 0 37
-113z m457 93 c19 -10 43 -67 34 -81 -10 -17 -41 -9 -58 14 l-15 22 -21 -24
c-13 -15 -20 -37 -20 -66 0 -51 20 -65 50 -33 16 17 22 19 35 8 20 -17 19 -32
-6 -64 -36 -46 -108 -32 -128 25 -21 60 -5 146 35 190 18 20 64 25 94 9z
m-671 -26 c26 -33 26 -41 0 -54 -16 -9 -23 -8 -33 5 -20 27 -46 8 -46 -34 0
-67 50 -121 58 -63 3 19 9 23 30 20 65 -7 20 -108 -48 -108 -73 0 -127 139
-85 220 17 32 27 38 72 39 23 1 37 -6 52 -25z m894 -23 c39 -39 30 -153 -17
-208 -31 -36 -85 -37 -121 -3 -20 19 -25 33 -25 72 0 127 94 207 163 139z
m-1069 -102 c14 -67 25 -123 24 -125 -2 -1 -14 -5 -28 -9 -24 -6 -26 -3 -48
97 -13 57 -26 113 -29 125 -4 20 6 28 43 32 6 0 23 -53 38 -120z m1225 65 c3
-2 -32 -109 -54 -165 -4 -12 4 -19 35 -28 45 -13 44 -11 28 -46 -10 -22 -16
-25 -42 -19 -17 3 -47 13 -67 21 l-37 14 29 77 c16 42 29 81 29 85 0 4 7 24
15 43 12 30 18 34 37 28 13 -3 25 -8 27 -10z m-1367 -11 c45 -51 68 -150 46
-193 -9 -16 -30 -31 -63 -42 l-50 -17 -12 27 c-17 38 -63 188 -63 206 0 33
116 48 142 19z m-189 -55 c4 -12 5 -23 4 -24 -1 -1 -19 -10 -39 -20 -25 -13
-35 -23 -29 -32 6 -10 15 -10 41 -1 29 11 35 10 47 -6 19 -27 17 -29 -22 -44
-35 -12 -47 -37 -22 -47 7 -2 29 2 49 10 l36 16 11 -31 c9 -26 8 -31 -12 -38
-12 -5 -41 -17 -65 -26 -25 -10 -47 -14 -51 -9 -12 13 -95 223 -90 227 11 9
106 45 120 46 9 1 19 -9 22 -21z m1707 12 c13 -8 12 -17 -8 -72 -45 -120 -45
-114 -2 -127 37 -11 38 -12 27 -41 -14 -36 -21 -37 -91 -6 l-55 24 46 116 c26
64 51 116 57 116 6 0 18 -5 26 -10z m-1848 -180 c55 -106 56 -110 37 -121 -24
-13 -21 -15 -53 41 -23 38 -26 41 -20 15 4 -16 11 -41 16 -55 7 -19 5 -27 -9
-37 -15 -12 -20 -10 -39 14 -59 75 -66 80 -36 20 30 -56 30 -57 10 -68 -11 -6
-21 -9 -23 -7 -7 7 -115 212 -115 218 0 7 45 30 60 30 5 0 23 -20 41 -45 18
-25 34 -43 36 -42 2 2 -4 23 -12 47 -8 23 -15 50 -15 60 0 16 31 38 55 39 6 0
36 -49 67 -109z m2060 83 c61 -29 66 -38 45 -67 -13 -17 -15 -17 -45 -2 -38
20 -52 20 -52 2 0 -7 14 -19 30 -26 32 -13 35 -21 20 -50 -10 -19 -12 -19 -46
-3 -31 15 -36 15 -44 3 -15 -23 -12 -27 20 -40 39 -16 42 -23 30 -54 l-10 -26
-65 32 c-36 18 -65 36 -65 41 0 14 111 217 118 217 4 0 33 -12 64 -27z m203
-118 c25 -24 31 -49 19 -78 -8 -23 -58 -6 -62 21 -9 57 -96 -13 -90 -72 2 -23
9 -32 26 -34 22 -3 30 12 12 23 -13 8 -13 18 4 40 13 18 14 18 49 -4 l36 -22
-31 -49 c-25 -41 -36 -50 -59 -50 -112 0 -135 111 -44 206 34 37 48 44 79 44
26 0 44 -7 61 -25z m-2590 -70 c24 -23 29 -40 26 -77 -1 -10 3 -18 9 -18 14 0
90 -50 90 -60 0 -4 -12 -12 -26 -19 -23 -10 -32 -9 -65 14 -52 34 -65 32 -36
-7 38 -51 38 -55 12 -72 -24 -16 -24 -16 -91 82 -36 53 -68 102 -71 108 -5 13
85 74 110 74 10 0 29 -11 42 -25z m2752 -46 c29 -23 53 -45 53 -49 0 -4 -8
-15 -19 -24 -17 -16 -20 -15 -50 10 -24 20 -35 24 -44 15 -8 -8 -4 -18 17 -40
24 -25 26 -32 16 -51 l-11 -21 -34 25 c-30 23 -34 24 -46 10 -11 -14 -9 -20
19 -45 31 -28 32 -30 16 -54 l-16 -25 -59 46 c-39 29 -57 50 -52 58 17 26 146
186 151 186 3 0 29 -19 59 -41z m-1282 21 c344 -31 692 -164 958 -367 31 -24
57 -42 57 -38 0 3 59 -52 130 -123 72 -71 133 -126 137 -123 3 3 3 1 -1 -6 -3
-6 4 -19 16 -27 12 -9 19 -16 15 -16 -5 0 12 -26 36 -57 24 -32 59 -82 76
-110 18 -29 38 -53 44 -53 5 0 7 -3 4 -7 -4 -3 9 -35 29 -70 116 -207 193
-478 216 -756 28 -340 -53 -731 -213 -1023 -21 -39 -36 -74 -32 -77 3 -4 1 -7
-4 -7 -6 0 -26 -24 -44 -52 -17 -29 -52 -79 -76 -111 -24 -31 -42 -57 -40 -57
3 0 -46 -52 -107 -116 -61 -63 -109 -118 -106 -121 3 -3 0 -3 -6 0 -7 4 -26
-9 -43 -28 -17 -20 -31 -33 -31 -30 0 3 -26 -14 -57 -38 -266 -203 -606 -333
-958 -367 -136 -12 -155 -13 -155 0 0 6 6 10 13 10 20 0 84 71 102 112 16 39
19 78 9 115 -11 41 -21 24 -16 -26 8 -89 -47 -169 -137 -200 -107 -35 -225 29
-250 136 -18 73 -1 126 55 180 47 46 55 60 25 43 -42 -22 -81 -73 -96 -125
-23 -78 -7 -134 58 -199 l49 -49 -54 7 c-113 14 -267 49 -368 83 -58 19 -111
36 -117 36 -7 0 -13 4 -13 8 0 7 -47 22 -53 17 -2 -2 -10 2 -18 8 -8 7 -50 31
-94 55 -102 54 -175 101 -247 156 -32 24 -58 41 -58 36 0 -4 -7 3 -16 15 -8
12 -20 20 -25 16 -5 -3 -8 -1 -7 4 2 5 -41 50 -94 100 -54 51 -95 92 -91 92 3
0 -10 16 -30 35 -20 20 -37 39 -38 43 -3 17 -26 41 -33 34 -4 -4 -6 -2 -4 3 1
6 -22 48 -53 95 -187 285 -283 568 -311 912 -28 343 53 731 213 1024 21 39 36
74 32 77 -3 4 -1 7 4 7 6 0 26 24 44 53 17 28 52 78 76 110 24 31 42 57 38 57
-3 0 61 67 142 149 81 82 150 147 152 145 2 -2 29 16 60 40 31 24 80 58 109
75 28 18 52 38 52 44 0 5 3 8 6 5 3 -4 53 18 111 48 58 30 112 54 119 54 8 0
14 5 14 10 0 6 3 9 8 8 4 -1 57 14 117 34 248 83 507 112 770 88z m-1572 -186
c10 -13 21 -40 24 -59 11 -69 -61 -108 -125 -69 -24 15 -123 123 -130 142 -1
4 8 13 20 21 20 12 25 9 81 -53 59 -66 83 -79 93 -51 4 10 -15 39 -50 79 -31
35 -56 68 -56 72 0 4 7 16 16 25 16 17 19 16 62 -33 25 -27 54 -61 65 -74z
m3086 -41 c2 -1 -25 -54 -59 -117 l-62 -115 -24 16 c-27 17 -29 24 -12 41 10
10 8 17 -9 34 -19 18 -24 19 -38 8 -14 -11 -19 -10 -38 9 -19 19 -20 23 -7 31
8 5 58 36 110 69 91 58 95 59 115 43 11 -9 22 -18 24 -19z m-3339 -36 l10 -53
76 -28 c41 -16 77 -32 79 -36 2 -4 -6 -17 -19 -29 l-24 -22 -42 21 c-23 12
-44 19 -48 16 -3 -3 7 -23 21 -43 27 -38 27 -38 7 -58 -20 -20 -20 -19 -110
70 -90 89 -90 90 -70 109 20 20 20 20 51 -9 26 -24 31 -26 25 -10 -20 54 -19
76 4 100 13 14 25 25 26 25 1 0 8 -24 14 -53z m3427 -142 c-15 -31 -27 -58
-27 -61 0 -3 20 11 45 32 37 30 48 34 60 24 8 -7 15 -18 15 -24 0 -13 -175
-166 -190 -166 -5 0 -14 9 -20 20 -9 17 -6 32 14 75 14 30 23 55 20 55 -2 0
-22 -17 -45 -37 -40 -36 -42 -37 -55 -18 -8 11 -13 23 -11 28 1 5 43 44 92 87
89 78 90 78 110 59 19 -19 19 -19 -8 -74z m-3426 -111 c30 -15 30 -16 13 -35
-12 -14 -26 -18 -41 -14 -18 4 -26 0 -35 -19 -8 -18 -8 -29 0 -38 8 -10 6 -20
-7 -36 l-17 -24 -73 97 c-85 114 -88 120 -67 144 17 18 20 18 107 -20 50 -21
104 -46 120 -55z m3594 -21 c33 -50 32 -84 -5 -127 -32 -36 -103 -76 -135 -76
-19 0 -95 76 -95 94 0 6 12 20 27 30 71 52 167 116 174 116 5 0 20 -17 34 -37z
m-3864 -51 c13 -10 57 -38 97 -62 75 -46 83 -58 56 -81 -14 -11 -22 -10 -57
10 -39 23 -41 23 -54 5 -12 -17 -11 -21 8 -34 59 -39 63 -45 48 -68 -15 -20
-16 -19 -117 42 -56 35 -105 65 -108 69 -7 7 18 47 29 47 5 0 22 -9 39 -21 28
-21 30 -21 43 -3 19 25 18 31 -2 39 -10 3 -26 12 -36 19 -15 12 -16 18 -7 35
13 26 30 27 61 3z m-126 -174 c27 -12 30 -20 16 -47 -8 -14 3 -23 67 -57 77
-40 90 -56 73 -84 -8 -12 -24 -7 -92 29 l-82 44 -17 -23 c-15 -20 -20 -21 -41
-10 -13 7 -25 14 -27 15 -4 4 68 145 73 145 2 0 16 -5 30 -12z m4136 -16 c7
-17 2 -25 -27 -42 -38 -24 -38 -24 -23 -51 10 -20 11 -20 46 2 35 22 36 22 50
4 7 -11 12 -24 10 -29 -2 -6 -52 -35 -110 -66 -91 -46 -109 -53 -117 -40 -17
26 -11 39 30 60 36 19 39 22 29 44 l-11 24 -45 -25 c-25 -13 -46 -23 -48 -21
-1 2 -7 13 -14 25 -10 20 -7 24 51 56 35 19 83 46 108 60 52 29 60 29 71 -1z
m82 -214 c52 -27 63 -88 24 -130 -32 -34 -131 -71 -169 -62 -31 6 -68 54 -68
88 0 11 17 36 38 56 56 52 129 73 175 48z m-4150 -118 c11 -10 -1 -50 -14 -50
-10 0 -220 80 -228 86 -2 2 1 15 7 28 l11 24 108 -40 c59 -22 112 -43 116 -48z
m-183 -45 c16 -8 33 -21 37 -29 6 -10 21 -12 63 -6 30 4 57 6 59 4 3 -3 0 -17
-5 -32 -8 -23 -16 -27 -54 -30 -65 -5 -72 -19 -16 -34 43 -11 47 -14 41 -38
-4 -14 -8 -26 -10 -28 -3 -4 -234 64 -241 71 -7 7 36 121 49 129 19 12 45 10
77 -7z m4419 -52 c33 -28 38 -76 10 -102 -12 -11 -28 -21 -35 -21 -14 0 -27
44 -14 48 6 2 10 13 10 24 0 37 -25 12 -32 -33 -9 -53 -37 -79 -85 -79 -46 0
-69 14 -82 50 -16 48 14 100 58 100 18 0 23 -41 7 -58 -21 -24 -5 -52 18 -33
9 8 16 22 16 33 0 70 78 113 129 71z m-4392 -168 c46 -19 62 -41 63 -83 0 -53
-36 -82 -105 -82 -124 0 -198 88 -130 155 20 21 34 25 80 25 31 0 72 -7 92
-15z m4457 -42 c12 -74 8 -91 -24 -108 -61 -31 -117 -14 -134 41 -6 19 -11 21
-44 13 -51 -12 -49 -12 -54 21 -5 33 -18 28 132 55 116 21 116 21 124 -22z
m-4509 -164 c58 -16 85 -45 85 -90 0 -67 -75 -103 -168 -79 -59 14 -92 44 -92
82 0 41 17 68 53 83 39 17 70 18 122 4z m4535 -14 c0 -32 0 -32 -137 -48
l-112 -13 -6 24 c-3 13 -4 26 -1 29 6 6 171 30 219 32 33 1 37 -2 37 -24z m15
-150 c4 -42 6 -78 4 -79 -2 -2 -17 -6 -34 -8 -26 -3 -30 0 -33 25 -3 25 -6 27
-35 23 -18 -3 -60 -8 -94 -11 l-63 -6 0 29 c0 25 5 30 31 36 17 3 58 6 90 6
59 0 59 0 59 30 0 27 3 30 34 30 l34 0 7 -75z m-4595 -55 c11 -6 22 -26 26
-45 6 -34 8 -35 50 -35 42 0 44 -1 44 -30 l0 -31 -127 3 -128 3 -3 54 c-4 69
14 91 75 91 24 0 53 -5 63 -10z m4475 -80 c63 -16 117 -30 120 -30 3 0 5 -15
5 -33 l0 -33 -117 -27 c-65 -15 -124 -27 -130 -27 -22 0 -15 51 7 57 14 4 20
14 20 33 0 20 -6 31 -20 35 -21 7 -29 55 -10 55 6 0 62 -13 125 -30z m-4355
-113 c0 -28 -5 -35 -33 -45 -18 -6 -42 -19 -52 -27 -19 -15 -16 -16 35 -13 53
3 55 2 58 -24 4 -32 -10 -36 -153 -40 l-100 -3 0 70 0 70 35 11 c27 9 42 9 67
-1 28 -12 36 -11 80 11 26 13 51 24 56 24 4 0 7 -15 7 -33z m4438 -92 c26 -5
32 -11 32 -30 0 -23 -4 -25 -47 -25 -27 1 -68 5 -93 10 -50 9 -60 3 -60 -42 0
-24 -4 -28 -29 -28 -17 0 -32 4 -36 10 -3 5 -1 38 5 73 l11 63 92 -12 c51 -7
107 -16 125 -19z m-4418 -100 c0 -13 -8 -29 -19 -34 -25 -14 -17 -59 13 -63
15 -2 22 -11 24 -32 l4 -28 -59 6 c-32 3 -89 9 -128 12 -38 4 -73 12 -77 18
-12 18 -9 56 5 57 6 0 59 22 117 48 58 27 108 46 113 44 4 -2 7 -15 7 -28z
m4150 -34 c0 -5 21 -9 48 -8 44 2 47 0 47 -23 0 -23 -3 -25 -40 -23 -58 4
-129 63 -76 63 12 0 21 -4 21 -9z m-4120 -145 c0 -8 3 -21 6 -30 4 -10 -9 -25
-36 -45 -34 -24 -39 -32 -26 -37 9 -3 32 -3 51 0 31 6 35 4 41 -19 3 -14 5
-27 3 -29 -13 -10 -235 -64 -240 -58 -4 4 -9 16 -11 27 -2 16 5 22 36 29 l38
10 -48 16 c-36 12 -50 23 -57 44 -5 15 -7 30 -4 33 3 3 27 -2 53 -11 53 -18
54 -18 129 48 43 37 65 45 65 22z m4245 -48 c61 -17 112 -33 114 -34 2 -2 0
-19 -3 -38 l-7 -36 -62 6 -62 5 52 -28 c47 -24 52 -30 46 -52 -11 -49 -13 -49
-135 -12 -91 27 -118 39 -118 53 0 26 12 28 65 13 27 -8 50 -14 51 -12 2 2
-18 14 -44 28 -31 17 -47 31 -47 44 0 18 6 20 60 18 l60 -2 -47 17 c-55 20
-62 26 -55 47 8 20 5 20 132 -17z m-75 -250 c55 -39 100 -77 100 -83 0 -6 -6
-19 -13 -29 -12 -16 -21 -17 -117 -6 -109 12 -150 19 -150 27 0 19 25 43 44
43 29 0 42 37 21 60 -14 16 -10 60 6 60 5 0 54 -32 109 -72z m-4081 11 c10
-28 8 -32 -25 -61 -28 -25 -32 -33 -21 -40 8 -4 29 -3 46 3 36 13 40 11 43
-20 3 -21 -9 -28 -110 -69 -95 -39 -115 -44 -122 -32 -17 26 -11 41 23 55 32
13 32 13 7 19 -14 3 -34 7 -44 8 -11 2 -25 17 -33 36 l-13 33 57 -6 58 -6 55
55 c30 30 58 55 62 56 3 0 11 -14 17 -31z m4110 -245 c11 -10 -41 -95 -64
-106 -48 -22 -162 28 -191 84 -17 32 -10 67 22 116 l15 23 107 -57 c59 -31
109 -58 111 -60z m-4029 60 c13 -23 12 -27 -2 -35 -25 -14 -3 -59 28 -59 20 0
53 -36 42 -44 -3 -3 -225 -58 -242 -60 -5 0 -15 10 -23 24 -13 24 -10 28 79
112 51 48 96 87 99 88 3 0 12 -12 19 -26z m3883 -216 c52 -33 53 -36 33 -63
-13 -18 -14 -18 -48 3 -26 16 -37 19 -46 10 -20 -20 -14 -37 18 -53 32 -17 37
-31 17 -57 -12 -14 -22 -10 -105 42 -122 76 -124 78 -111 101 13 25 27 24 70
-5 l35 -24 13 21 c14 22 10 29 -47 67 -21 14 -22 16 -7 37 l16 23 57 -37 c31
-20 78 -49 105 -65z m-3762 11 c12 -23 10 -26 -44 -55 -15 -8 -49 -47 -74 -86
l-46 -71 -19 23 c-18 22 -18 23 4 58 l22 35 -42 -6 c-34 -4 -44 -2 -52 13 -17
32 -12 36 65 48 47 7 89 21 113 36 46 31 58 32 73 5z m57 -90 c10 -16 10 -24
1 -35 -18 -22 15 -68 40 -54 14 7 23 5 36 -10 10 -11 16 -22 13 -25 -3 -3 -56
-28 -118 -55 -107 -48 -114 -49 -131 -34 -11 10 -19 22 -19 28 0 13 148 206
158 206 4 0 13 -9 20 -21z m3528 -70 c49 -40 91 -76 92 -81 6 -14 -71 -109
-87 -106 -7 2 -19 11 -25 20 -8 13 -6 22 12 41 43 45 18 66 -27 23 -23 -22
-28 -23 -45 -10 -19 14 -19 14 3 45 18 24 20 33 10 45 -10 13 -17 11 -45 -16
-27 -27 -35 -30 -53 -21 -12 7 -21 15 -21 18 0 11 80 113 89 113 5 0 48 -32
97 -71z m-3404 -160 c-30 -72 -28 -75 20 -30 39 38 43 40 60 24 10 -9 18 -19
18 -22 0 -3 -41 -44 -91 -90 -88 -81 -90 -83 -110 -65 -11 10 -18 23 -15 28 2
6 14 36 26 66 l21 55 -45 -44 c-45 -44 -46 -45 -67 -25 l-21 19 93 87 c92 87
94 87 113 68 19 -18 19 -19 -2 -71z m3294 4 l88 -83 -34 -36 c-50 -52 -65 -57
-99 -39 -58 29 -78 89 -44 127 16 17 15 20 -15 51 -30 31 -31 34 -15 50 10 9
20 16 24 15 3 -2 46 -40 95 -85z m-3143 -81 c16 -17 16 -23 1 -71 -8 -29 -13
-55 -11 -58 3 -2 17 12 32 31 30 39 46 44 65 21 10 -12 1 -27 -48 -87 -33 -40
-71 -83 -84 -96 -24 -22 -25 -22 -42 -3 -16 18 -16 23 -2 72 22 73 21 74 -23
26 -34 -36 -41 -40 -55 -28 -9 8 -15 20 -12 28 7 17 149 183 157 183 3 0 13
-8 22 -18z m3018 -62 c38 -39 69 -74 69 -79 0 -4 -8 -15 -18 -24 -17 -16 -22
-13 -81 48 -67 69 -91 80 -91 42 0 -14 21 -44 60 -82 56 -55 59 -60 43 -77 -9
-10 -21 -18 -26 -18 -11 0 -116 112 -134 144 -31 53 8 116 73 116 32 0 45 -9
105 -70z m-173 -135 c40 -52 70 -100 67 -106 -13 -20 -88 -69 -107 -69 -27 0
-68 48 -68 79 0 21 -10 32 -50 54 -28 16 -50 32 -50 37 0 5 10 16 22 24 19 14
25 13 65 -11 24 -14 46 -24 48 -21 2 2 -7 21 -22 41 -21 30 -24 39 -13 52 7 8
18 15 24 15 6 0 44 -43 84 -95z m-2697 69 c14 -12 16 -21 9 -34 -7 -14 -4 -21
14 -34 21 -13 26 -13 36 -1 9 11 17 11 36 3 13 -6 24 -15 24 -19 0 -4 -43 -44
-96 -89 -90 -77 -97 -82 -120 -69 -13 7 -24 17 -24 23 0 24 84 236 93 236 6 0
19 -7 28 -16z m2497 -131 c21 -60 62 -184 62 -189 0 -2 -11 -11 -25 -20 -24
-16 -25 -15 -120 73 l-96 88 22 18 c20 16 24 16 37 3 21 -21 65 0 58 28 -5 19
18 56 34 56 4 0 17 -26 28 -57z m-2294 -4 c43 -34 34 -114 -12 -102 -15 3 -22
13 -22 29 0 40 -14 28 -59 -51 -23 -41 -46 -77 -51 -80 -5 -3 -18 0 -29 7 -19
12 -19 12 1 52 40 78 88 147 111 156 31 12 31 12 61 -11z m718 -231 l3 -33
365 0 365 0 3 33 3 32 202 0 202 -1 -68 -62 c-37 -34 -67 -65 -67 -68 0 -4 30
-32 66 -63 l66 -56 -151 0 -150 0 -3 -32 -3 -33 -470 0 -470 0 -3 33 -3 32
-145 0 -146 0 66 56 c36 31 66 59 66 63 0 3 -30 34 -67 68 l-68 62 202 1 202
0 3 -32z"/>
<path d="M2320 4735 c0 -14 5 -25 10 -25 6 0 10 11 10 25 0 14 -4 25 -10 25
-5 0 -10 -11 -10 -25z"/>
<path d="M2990 4735 c-7 -8 -15 -35 -18 -60 -4 -36 -1 -46 12 -51 28 -11 50
20 50 73 1 51 -19 68 -44 38z"/>
<path d="M1790 4693 c0 -18 35 -123 41 -123 4 0 12 7 19 15 22 26 -13 115 -45
115 -8 0 -15 -3 -15 -7z"/>
<path d="M1142 4371 c-15 -9 -5 -41 13 -41 8 0 17 5 21 11 9 15 -18 40 -34 30z"/>
<path d="M2435 4276 c-86 -39 -104 -141 -35 -200 34 -28 90 -43 117 -31 10 5
23 9 28 9 19 2 64 43 76 69 16 36 3 94 -27 120 -14 12 -28 20 -31 19 -3 -2 -9
2 -13 8 -11 18 -82 22 -115 6z"/>
<path d="M2462 4001 c-52 -14 -102 -71 -102 -118 0 -16 2 -16 18 3 65 78 225
76 275 -4 21 -35 23 -7 3 42 -25 60 -117 96 -194 77z"/>
<path d="M2463 3845 l-33 -14 0 -323 c-1 -303 -2 -321 -17 -293 -21 39 -42 54
-75 55 -35 0 -35 9 -3 44 31 34 69 106 60 114 -4 4 -15 -4 -26 -17 -10 -13
-19 -20 -19 -17 0 4 -10 -3 -22 -14 -37 -35 -139 -87 -193 -98 -55 -12 -125
-21 -125 -17 0 2 33 23 73 48 39 25 85 59 101 76 l30 31 -39 0 c-28 0 -59 -12
-109 -42 -39 -23 -73 -45 -76 -48 -3 -3 -9 -6 -15 -7 -5 -1 -35 -11 -65 -21
-134 -47 -146 -36 -27 25 77 40 163 101 125 89 -10 -3 -23 1 -30 8 -11 11 -18
9 -43 -9 -69 -52 -137 -77 -220 -82 -92 -6 -167 7 -244 42 -63 29 -62 42 0 24
116 -31 266 -9 357 53 61 42 238 210 234 223 -2 5 0 7 3 3 4 -4 27 6 52 23 58
40 138 75 193 84 65 11 67 15 19 38 -47 23 -166 30 -204 13 -11 -5 -22 -10
-25 -10 -20 -5 -49 -29 -45 -36 3 -6 0 -7 -8 -5 -12 5 -170 -120 -209 -167
-10 -11 -18 -17 -18 -14 0 4 -15 -4 -33 -18 -140 -107 -368 -132 -579 -63 -45
14 -47 14 -38 -3 20 -37 151 -147 235 -197 169 -101 306 -141 508 -150 70 -3
127 -6 127 -7 0 0 -7 -23 -15 -51 -13 -41 -14 -59 -4 -100 15 -64 61 -132 103
-152 l33 -15 -20 -42 c-12 -24 -22 -70 -25 -113 -6 -88 20 -151 79 -192 21
-14 41 -33 44 -41 3 -8 3 -11 -1 -7 -18 17 -84 -47 -90 -88 0 -5 -4 -18 -9
-28 -10 -24 2 -91 24 -135 12 -23 36 -46 62 -61 24 -13 46 -26 48 -27 2 -2 -8
-14 -24 -26 -38 -29 -65 -93 -65 -153 0 -54 31 -135 51 -135 7 0 9 -3 6 -7 -4
-3 2 -12 13 -20 19 -14 19 -14 0 -46 -23 -37 -25 -93 -6 -157 15 -50 38 -72
57 -53 10 10 10 21 1 51 -32 107 5 167 99 160 l44 -3 3 -179 c1 -112 7 -185
13 -193 17 -19 57 -16 69 6 5 11 10 85 10 168 0 140 1 149 19 149 11 0 17 -4
15 -8 -3 -4 0 -15 5 -25 5 -10 12 -26 15 -36 7 -22 30 -18 34 6 4 20 -37 83
-65 98 -16 9 -22 23 -25 61 -1 27 2 53 7 58 6 5 27 0 49 -11 21 -10 43 -16 49
-12 5 3 7 1 4 -4 -4 -6 3 -19 14 -29 41 -37 62 -93 56 -153 -2 -31 -8 -64 -12
-73 -12 -29 21 -22 45 9 18 23 21 39 19 106 -2 74 -1 79 28 110 84 88 95 213
27 313 -15 22 -22 40 -16 42 58 19 102 100 102 187 0 94 -37 159 -105 185
l-29 11 42 19 c25 11 41 24 37 30 -4 6 -1 9 5 8 17 -4 48 58 56 110 9 58 -9
114 -46 146 -17 13 -30 27 -30 29 0 3 12 8 28 12 100 25 162 165 118 270 l-15
35 97 0 c282 0 541 102 734 290 39 38 69 72 67 75 -3 2 -29 -4 -57 -14 -70
-26 -222 -45 -296 -37 -146 16 -236 63 -416 216 -125 106 -173 136 -237 146
-55 8 -136 -3 -127 -18 5 -7 2 -8 -5 -4 -14 9 -73 -13 -66 -24 3 -4 26 -11 52
-15 101 -15 207 -80 343 -211 95 -92 138 -123 210 -157 57 -26 76 -30 155 -30
50 0 110 6 134 12 89 25 49 -4 -69 -50 -22 -9 -75 -14 -145 -14 -101 0 -115 3
-165 28 -30 16 -72 42 -92 58 -27 21 -38 26 -38 15 0 -8 -10 -16 -22 -18 -20
-3 -18 -7 23 -35 26 -18 49 -29 53 -26 3 4 6 2 6 -4 0 -15 88 -55 102 -47 7 4
8 3 4 -4 -4 -7 -2 -12 3 -12 6 0 11 -5 11 -10 0 -16 -93 10 -186 52 -27 12
-52 21 -56 20 -5 -1 -8 2 -8 7 0 4 -22 22 -50 39 -27 17 -50 28 -50 23 0 -4
-15 -6 -32 -3 l-33 4 38 -39 c21 -22 65 -55 97 -73 33 -19 60 -37 60 -40 0 -8
-104 5 -146 18 -16 5 -45 17 -62 26 -18 9 -32 13 -32 9 0 -5 -4 -3 -8 2 -14
20 -110 95 -121 95 -13 0 14 -60 33 -72 6 -4 8 -8 3 -8 -4 0 -1 -10 8 -23 13
-21 13 -24 -4 -39 -11 -9 -21 -15 -23 -12 -8 8 -56 -51 -58 -71 -5 -44 1 -59
36 -91 27 -26 44 -34 73 -34 41 0 111 25 111 39 0 21 -32 33 -69 27 -49 -8
-71 0 -71 26 0 32 18 55 52 67 27 10 40 8 85 -11 63 -26 86 -65 87 -148 0 -63
-19 -100 -64 -122 -28 -14 -34 -12 -88 13 -31 16 -75 31 -97 34 -22 3 -51 8
-65 11 l-25 4 6 253 c4 138 7 323 8 410 l1 158 -35 15 c-41 17 -42 17 -82 -1z
m-153 -638 c54 -28 28 -77 -41 -77 -23 0 -39 -5 -42 -15 -7 -18 -2 -21 49 -30
64 -10 117 8 136 47 l17 33 0 -82 1 -83 -39 0 c-48 0 -71 -8 -71 -25 0 -8 18
-12 58 -12 l57 0 3 -38 c2 -21 0 -41 -5 -45 -14 -13 -144 19 -209 50 -78 38
-110 84 -115 162 -2 31 -1 54 2 52 4 -2 14 8 24 22 31 48 120 69 175 41z m394
-283 c39 -20 103 -81 121 -114 35 -66 26 -178 -16 -216 -18 -16 -37 -19 -135
-19 l-114 0 0 118 c0 132 -3 129 72 91 15 -8 31 -15 35 -16 14 -4 52 -54 63
-82 15 -41 33 -22 26 28 -8 51 -70 111 -130 127 -23 5 -47 12 -53 14 -8 3 -13
23 -13 54 0 39 4 50 18 53 19 4 77 -14 126 -38z m-266 -217 l3 -129 -33 7
c-48 10 -85 51 -103 112 -15 53 -35 71 -35 33 0 -11 4 -20 9 -20 5 0 7 -8 4
-19 -11 -42 45 -111 115 -142 43 -19 57 -51 27 -63 -8 -3 -15 -1 -15 4 0 6 -7
10 -16 10 -30 0 -127 55 -150 85 -13 17 -29 53 -35 81 -10 42 -9 55 6 89 10
22 17 43 17 48 -1 4 1 6 6 5 4 0 23 6 42 15 23 11 56 16 95 14 l60 -2 3 -128z
m204 -198 c29 -6 67 -22 84 -35 17 -13 34 -21 38 -19 3 3 4 2 1 -1 -2 -4 7
-26 20 -49 20 -33 25 -56 25 -106 0 -65 -28 -149 -49 -149 -6 0 -28 9 -49 20
-22 12 -67 26 -101 32 l-61 12 0 90 c0 110 7 127 44 102 14 -9 26 -14 26 -11
0 3 13 -10 30 -28 22 -26 28 -41 25 -65 -4 -34 11 -42 33 -20 17 17 15 79 -3
105 -16 23 -78 65 -92 62 -4 -1 -18 2 -30 6 -17 5 -23 15 -23 36 0 33 5 34 82
18z m-202 -155 c0 -69 -4 -104 -11 -104 -15 0 -70 39 -91 64 -10 12 -18 17
-18 13 0 -22 36 -66 76 -93 41 -27 44 -32 44 -76 0 -27 -2 -48 -5 -48 -27 0
-137 65 -167 98 -51 56 -58 102 -27 161 29 55 108 99 164 93 l35 -4 0 -104z
m233 -232 c85 -35 128 -124 107 -222 -7 -30 -13 -63 -13 -72 -1 -22 -14 -22
-58 -4 -19 7 -64 19 -101 27 -67 12 -68 13 -68 44 0 65 13 155 23 155 21 0 97
-88 97 -112 0 -14 6 -31 14 -37 22 -19 39 21 31 72 -9 53 -49 93 -109 108 -43
11 -46 14 -46 44 l0 32 43 -10 c23 -5 59 -16 80 -25z m-233 -137 c0 -47 -4
-85 -8 -85 -14 0 -40 32 -52 65 -10 27 -13 28 -21 12 -15 -26 -3 -51 46 -93
40 -34 45 -42 45 -81 0 -47 -5 -50 -55 -29 -19 8 -35 13 -35 10 0 -3 -22 17
-50 44 -57 56 -63 87 -30 159 23 51 70 83 123 83 l37 0 0 -85z"/>
<path d="M1380 2972 c-3 -91 -1 -142 5 -142 6 0 9 37 7 97 -4 178 -8 190 -12
45z"/>
<path d="M3582 2973 c-1 -79 1 -143 6 -143 4 0 6 44 4 97 -4 174 -8 191 -10
46z"/>
<path d="M1140 3047 c0 -18 121 -247 132 -247 6 0 4 7 -5 18 -10 10 -17 21
-17 25 0 9 -110 213 -110 204z"/>
<path d="M1564 2929 c-34 -65 -59 -120 -57 -123 3 -3 32 50 64 116 33 66 58
122 57 123 -2 2 -31 -50 -64 -116z"/>
<path d="M3340 3045 c0 -17 122 -245 131 -245 8 0 8 4 1 13 -5 6 -35 63 -67
125 -51 100 -65 124 -65 107z"/>
<path d="M3764 2930 c-33 -67 -58 -122 -55 -124 3 -1 34 53 68 121 34 67 59
123 55 123 -4 0 -34 -54 -68 -120z"/>
<path d="M1291 2950 c0 -8 5 -38 13 -67 8 -28 11 -54 8 -57 -3 -3 3 -6 13 -6
15 0 16 3 7 12 -7 7 -12 21 -13 33 -1 26 -27 105 -28 85z"/>
<path d="M1460 2903 c-7 -32 -15 -64 -17 -70 -3 -7 2 -13 12 -13 9 0 13 5 10
10 -4 6 -1 35 5 66 7 31 10 58 7 60 -2 2 -10 -22 -17 -53z"/>
<path d="M3491 2955 c0 -5 5 -36 13 -67 7 -32 11 -60 8 -63 -3 -3 3 -5 13 -5
15 0 16 3 7 12 -7 7 -12 21 -13 33 -1 22 -26 106 -28 90z"/>
<path d="M3666 2924 c-4 -20 -5 -38 -3 -40 3 -3 8 11 11 32 4 20 5 38 3 40 -3
3 -8 -11 -11 -32z"/>
<path d="M1142 2842 c34 -42 64 -79 65 -81 2 -3 11 3 21 13 15 15 15 16 1 11
-12 -5 -32 12 -70 59 -30 35 -60 67 -67 70 -7 3 15 -29 50 -72z"/>
<path d="M1627 2859 c-27 -33 -57 -63 -68 -67 -18 -7 -18 -8 2 -20 12 -8 18
-9 15 -4 -3 6 15 34 41 63 72 82 77 89 67 89 -5 0 -31 -27 -57 -61z"/>
<path d="M3336 2853 c31 -38 63 -74 69 -81 10 -11 14 -10 25 3 11 13 10 15 -2
10 -10 -4 -35 18 -73 65 -33 38 -63 70 -68 70 -5 0 17 -30 49 -67z"/>
<path d="M3820 2849 c-60 -68 -62 -71 -44 -87 12 -12 14 -12 7 -2 -9 12 -5 23
18 50 107 127 119 151 19 39z"/>
<path d="M950 2882 c0 -5 6 -12 13 -15 19 -8 191 -137 199 -150 6 -9 8 -9 8 0
0 7 -44 45 -97 84 -54 40 -104 77 -110 82 -9 6 -13 6 -13 -1z"/>
<path d="M1723 2820 c-50 -38 -98 -72 -107 -77 -13 -7 -12 -12 5 -33 18 -22
19 -22 9 -3 -10 21 -3 28 87 95 54 39 100 73 102 75 2 2 2 5 0 7 -2 3 -46 -26
-96 -64z"/>
<path d="M3153 2884 c3 -6 43 -37 88 -70 45 -32 92 -69 105 -81 13 -12 26 -18
28 -14 3 4 -21 26 -52 48 -31 23 -84 60 -116 84 -33 23 -57 38 -53 33z"/>
<path d="M3935 2828 c-44 -33 -92 -68 -108 -78 -25 -16 -26 -18 -10 -31 9 -8
14 -9 10 -2 -5 8 28 38 90 84 54 40 100 74 102 76 2 1 2 5 0 7 -2 2 -40 -23
-84 -56z"/>
<path d="M3648 2853 c-3 -13 -2 -26 4 -29 14 -9 16 -2 8 26 -6 25 -6 25 -12 3z"/>
<path d="M835 2080 c-4 -7 195 -10 579 -10 381 0 586 3 586 10 0 14 -1157 14
-1165 0z"/>
<path d="M3030 2080 c0 -7 208 -10 591 -10 386 0 588 3 584 10 -8 13 -1175 13
-1175 0z"/>
<path d="M2886 1499 c-3 -34 -6 -101 -6 -148 0 -47 -3 -123 -7 -168 -5 -71 -9
-83 -24 -83 -10 0 -30 16 -45 35 -14 19 -32 35 -39 35 -7 0 -25 -16 -39 -35
-32 -41 -51 -44 -78 -10 -25 32 -41 32 -67 -2 l-20 -28 -28 33 c-33 37 -42 34
-73 -28 l-23 -45 -12 30 c-7 18 -15 114 -19 233 -4 112 -10 210 -13 218 -16
42 -23 -28 -23 -231 -1 -203 -2 -217 -16 -186 -14 33 -15 33 -34 16 -24 -22
-32 -16 -63 45 -12 24 -26 43 -32 43 -5 -1 -26 -27 -46 -59 -20 -33 -43 -60
-52 -62 -9 -2 -26 8 -38 22 -28 32 -37 32 -80 0 l-34 -25 -31 35 c-30 35 -31
40 -37 157 -4 67 -7 148 -7 180 0 32 -4 60 -9 63 -13 8 -19 -54 -27 -253 -6
-162 -8 -172 -22 -146 -12 24 -16 26 -24 12 -7 -13 -23 -17 -65 -17 l-55 0 57
62 c70 76 89 116 80 174 -17 115 -168 148 -258 57 l-37 -37 -18 24 c-25 35
-25 35 -52 53 -49 33 -152 10 -190 -43 -47 -66 -15 -145 108 -271 50 -51 75
-69 94 -69 15 0 30 5 33 10 3 6 19 10 34 10 22 0 45 17 105 80 42 44 76 84 76
90 0 19 15 10 27 -15 11 -24 7 -30 -59 -93 -39 -37 -88 -84 -109 -104 -26 -27
-46 -38 -67 -38 -28 0 -62 -26 -62 -47 0 -16 35 -43 56 -43 28 0 44 19 44 51
0 21 13 39 56 76 54 47 57 48 135 53 l80 5 10 -37 c5 -20 13 -39 18 -42 10 -6
20 62 22 143 1 31 4 43 6 27 5 -32 41 -93 67 -115 14 -12 22 -10 56 14 l40 28
23 -21 c14 -13 36 -22 54 -22 27 0 35 7 62 55 17 30 33 55 36 55 3 0 15 -21
28 -47 20 -43 26 -48 54 -47 33 2 43 -13 43 -67 0 -31 7 -39 26 -32 9 3 14 22
14 57 l1 51 17 -34 c9 -19 22 -36 29 -38 7 -3 24 19 38 48 l27 52 20 -31 c24
-39 34 -40 70 -5 l28 26 24 -26 c37 -40 58 -35 101 26 l16 22 23 -26 c30 -35
62 -52 85 -44 15 4 20 22 28 88 l10 82 2 -77 c1 -81 11 -100 40 -74 22 20 45
20 61 1 17 -21 40 -19 65 5 20 18 23 19 35 5 17 -21 43 -19 58 5 16 26 28 25
64 -5 36 -31 42 -27 99 57 22 32 42 58 44 58 3 0 14 -19 26 -42 27 -54 58 -88
79 -88 13 0 19 -12 24 -50 7 -52 20 -71 30 -44 3 9 7 64 7 122 2 106 2 106 9
35 3 -40 9 -75 12 -79 10 -10 46 15 53 36 7 22 16 25 32 9 6 -6 23 -9 39 -7
l29 4 -30 9 c-16 4 -36 15 -44 23 -16 15 -17 14 -47 -35 -7 -10 -15 -15 -20
-10 -4 4 -10 92 -12 196 -4 180 -11 226 -29 207 -4 -4 -9 -95 -11 -202 l-4
-194 -28 0 c-24 0 -34 10 -69 65 -23 36 -45 65 -50 65 -5 0 -29 -28 -53 -62
-24 -34 -48 -63 -54 -65 -6 -2 -25 7 -41 21 l-30 25 -23 -24 c-27 -28 -48 -32
-56 -10 -9 22 -26 18 -49 -11 l-20 -26 -27 21 c-32 25 -51 26 -69 4 -12 -14
-15 -12 -21 23 -4 21 -7 100 -8 174 0 145 -8 240 -20 240 -4 0 -10 -28 -14
-61z m-1420 -58 c18 -11 40 -33 50 -50 23 -40 34 -39 62 5 54 83 172 84 222 1
24 -39 25 -72 1 -116 l-18 -33 -42 48 c-27 31 -40 41 -37 28 6 -18 -2 -27 -51
-54 -94 -53 -143 -97 -143 -129 0 -16 -7 -34 -16 -42 -13 -11 -27 0 -102 77
-96 98 -127 149 -117 193 16 74 122 114 191 72z m176 -253 c-79 -78 -113 -94
-120 -58 -7 36 186 182 197 149 2 -7 -33 -48 -77 -91z"/>
<path d="M2500 981 c59 -30 77 -43 94 -73 16 -27 36 -38 36 -19 0 16 -77 90
-104 101 -45 17 -64 11 -26 -9z"/>
<path d="M2380 911 l0 -50 -52 -3 -53 -3 -3 -52 -3 -52 53 -3 53 -3 5 -50 5
-50 50 0 50 0 3 53 3 52 50 0 50 0 -3 53 -3 52 -47 3 -47 3 -3 47 -3 47 -52 3
-53 3 0 -50z"/>
<path d="M4076 4094 c-15 -10 -17 -17 -9 -25 8 -8 14 -5 23 11 15 28 10 32
-14 14z"/>
<path d="M709 3867 c13 -15 28 -24 32 -21 14 8 11 13 -23 30 l-33 17 24 -26z"/>
<path d="M4337 3773 c-44 -32 -47 -37 -33 -51 14 -15 20 -13 58 14 40 28 57
63 33 70 -5 2 -32 -13 -58 -33z"/>
<path d="M4585 3338 c-41 -14 -55 -27 -55 -49 0 -27 18 -33 61 -19 52 17 76
44 59 65 -14 17 -23 18 -65 3z"/>
<path d="M284 3169 c-7 -12 12 -29 34 -29 6 0 12 9 12 20 0 22 -34 28 -46 9z"/>
<path d="M246 2964 c-16 -15 -16 -18 0 -36 24 -25 117 -23 122 4 6 33 -95 60
-122 32z"/>
<path d="M4742 2943 c-28 -5 -24 -27 6 -31 17 -3 22 2 22 17 0 12 -1 20 -2 20
-2 -1 -13 -4 -26 -6z"/>
<path d="M215 2746 c-20 -16 -20 -16 4 -36 30 -26 98 -24 115 2 15 24 1 35
-54 43 -33 5 -50 2 -65 -9z"/>
<path d="M197 2543 c-16 -15 -6 -33 18 -33 28 0 34 24 9 34 -19 7 -19 7 -27
-1z"/>
<path d="M4710 2450 c0 -5 17 -10 38 -9 30 0 33 2 17 9 -28 12 -55 12 -55 0z"/>
<path d="M192 2323 c2 -10 13 -19 26 -21 17 -3 22 2 22 17 0 16 -6 21 -26 21
-19 0 -25 -5 -22 -17z"/>
<path d="M283 2130 c-31 -13 -29 -20 7 -20 20 0 30 5 30 15 0 17 -5 18 -37 5z"/>
<path d="M4562 1678 c3 -7 15 -14 29 -16 23 -2 23 -2 5 13 -24 18 -39 20 -34
3z"/>
<path d="M4442 1508 c4 -27 77 -71 102 -62 26 10 14 27 -40 56 -61 33 -66 34
-62 6z"/>
<path d="M514 1438 c-18 -20 -18 -21 -1 -15 10 4 23 7 28 7 5 0 9 7 9 15 0 21
-14 19 -36 -7z"/>
<path d="M716 1135 c-16 -25 -16 -25 9 -13 26 12 31 23 16 32 -5 3 -16 -5 -25
-19z"/>
<path d="M4164 967 c-7 -20 3 -37 21 -37 23 0 26 16 5 35 -18 16 -20 16 -26 2z"/>
<path d="M3860 686 c-10 -13 -10 -19 0 -32 12 -14 15 -14 29 0 14 15 14 17 0
32 -14 14 -17 14 -29 0z"/>
<path d="M1172 685 c-12 -25 -12 -25 13 -9 14 9 22 20 19 25 -9 15 -20 10 -32
-16z"/>
<path d="M3656 611 c-3 -4 6 -19 19 -31 l25 -24 -11 32 c-11 32 -23 40 -33 23z"/>
<path d="M2107 363 c-4 -3 -7 -30 -7 -60 l0 -53 48 1 c44 2 45 2 12 8 -47 8
-55 41 -11 41 17 0 31 5 31 10 0 6 -13 10 -30 10 -20 0 -30 5 -30 15 0 11 11
15 36 15 21 0 33 4 29 10 -7 11 -68 14 -78 3z"/>
<path d="M2420 351 c0 -14 -8 -21 -27 -23 -25 -3 -28 -7 -28 -38 0 -33 2 -35
33 -36 l32 -1 0 59 c0 32 -2 58 -5 58 -3 0 -5 -9 -5 -19z m-5 -61 c0 -16 -6
-26 -17 -28 -14 -3 -18 3 -18 28 0 25 4 31 18 28 11 -2 17 -12 17 -28z"/>
<path d="M2573 363 c-20 -8 -15 -22 6 -16 33 8 34 -16 2 -53 -17 -19 -31 -37
-31 -39 0 -3 19 -4 43 -4 29 2 34 3 15 6 -33 5 -35 14 -8 38 24 22 26 60 4 69
-9 3 -16 6 -17 5 -1 0 -8 -3 -14 -6z"/>
<path d="M2663 363 c-18 -7 -27 -67 -13 -93 7 -14 19 -20 33 -18 19 3 22 10
25 50 2 37 -1 49 -15 56 -10 5 -23 7 -30 5z m32 -32 c8 -26 -5 -73 -19 -68 -6
2 -12 22 -14 45 -2 32 0 42 12 42 8 0 17 -9 21 -19z"/>
<path d="M2751 356 c-7 -8 -11 -34 -9 -58 2 -33 7 -44 22 -47 40 -7 63 71 30
103 -19 20 -28 20 -43 2z m37 -46 c4 -38 -14 -63 -28 -40 -11 18 -13 64 -3 74
14 14 28 -1 31 -34z"/>
<path d="M2851 361 c-7 -5 -11 -17 -10 -27 2 -11 0 -25 -4 -32 -5 -7 -5 -21
-2 -33 5 -15 14 -19 33 -17 25 3 27 7 28 51 2 50 -18 75 -45 58z m32 -26 c1
-5 -6 -11 -15 -13 -11 -2 -18 3 -18 13 0 17 30 18 33 0z m3 -64 c-11 -18 -36
-13 -36 7 0 10 3 22 7 26 10 10 37 -20 29 -33z"/>
<path d="M2308 343 c-6 -32 4 -93 16 -93 10 0 11 18 7 98 -1 18 -19 15 -23 -5z"/>
<path d="M2210 315 c0 -9 11 -21 25 -27 34 -15 32 -32 -2 -23 -21 5 -25 4 -17
-5 16 -17 58 -8 62 12 2 12 -5 19 -22 24 -14 3 -26 11 -26 16 0 6 9 8 20 5 11
-3 20 -1 20 4 0 5 -13 9 -30 9 -20 0 -30 -5 -30 -15z"/>
<path d="M2460 260 c0 -5 5 -10 10 -10 6 0 10 5 10 10 0 6 -4 10 -10 10 -5 0
-10 -4 -10 -10z"/>
<path d="M12 2320 c0 -14 2 -19 5 -12 2 6 2 18 0 25 -3 6 -5 1 -5 -13z"/>
</g>
</svg>
